<?xml version="1.0" encoding="utf-8"?>
<!-- Generator: Adobe Illustrator 24.1.0, SVG Export Plug-In . SVG Version: 6.00 Build 0)  -->
<svg version="1.1" id="bddd68f9-3b37-4f15-84df-5c72bc277bdb"
	 xmlns="http://www.w3.org/2000/svg" xmlns:xlink="http://www.w3.org/1999/xlink" x="0px" y="0px" viewBox="0 0 905.34 646.07"
	 style="enable-background:new 0 0 905.34 646.07;" xml:space="preserve">
<style type="text/css">
	.st0{fill:#3F3D56;}
	.st1{fill:#E6E6E6;}
	.st2{fill:#2F2E41;}
	.st3{fill:#9CC22C;}
	.st4{fill:#CCCCCC;}
	.st5{fill:#F2F2F2;}
</style>
<circle class="st0" cx="70.67" cy="51.35" r="38"/>
<path class="st1" d="M305.61,620.26c30.23,12.52,62.32,19.95,94.98,21.98c15.3,0.95,30.89,1,46.11-1.02
	c13.34-1.77,26.88-5.41,38-13.27c11.11-8,18.93-19.76,22.01-33.1c3.4-14.06,1.97-28.79-2.89-42.34
	c-5.01-14.02-12.93-26.82-23.25-37.56c-9.25-9.46-22.2-18.07-36.04-16.45c-13.31,1.56-22.99,12.32-26.54,24.77
	c-4.25,14.93,0.64,30.71,7.27,44.15c11.25,22.79,29.3,41.93,50.68,55.53c21.51,13.77,46.23,21.69,71.74,22.99
	c25.56,1.15,53.04-4.78,73.18-21.29c10.6-8.62,18.18-20.4,21.61-33.63c3.58-13.96,2.64-28.7-0.45-42.65
	c-6.72-30.29-24.46-56.33-34.73-85.33c-2.55-7.08-4.51-14.35-5.86-21.74c-0.34-1.9-3.23-1.09-2.89,0.8
	c5.31,29.83,22.13,55.51,33.16,83.29c10.05,25.3,16.04,56.37,1.14,81.07c-13.4,22.22-40,33.06-64.82,35.82
	c-24.26,2.7-49.1-1.64-71.34-11.58c-22.39-10-42.45-25.59-57-45.39c-7.91-10.76-14.73-22.95-18.22-35.9
	c-3.58-13.26-2.74-28.27,6.72-38.98c4.18-4.87,9.99-8.05,16.35-8.93c6.6-0.83,13.22,1.02,19.02,4.11
	c12.46,6.62,21.74,18.14,28.89,30.04c7.39,12.3,12.6,26.24,13.12,40.7c0.48,13.44-3.05,27.22-11.12,38.09
	c-16.68,22.46-48.02,25.18-73.75,25.36c-31.53,0.2-62.89-4.7-92.86-14.49c-7.24-2.37-14.39-5.02-21.43-7.94
	C304.62,616.62,303.85,619.52,305.61,620.26L305.61,620.26z"/>
<path class="st2" d="M227.62,522.93l-8.06-12.37c-1.96-3.01-1.11-7.03,1.9-8.99l49.07-38.15c3.01-1.96,7.03-1.11,8.99,1.9
	l8.06,12.37c1.96,3.01,1.11,7.03-1.9,8.99l-49.07,38.15C233.61,526.78,229.58,525.93,227.62,522.93z"/>
<path class="st2" d="M221.52,501.62l12.94-7.09c3.15-1.72,7.1-0.57,8.82,2.58l34.36,61.92c1.72,3.15,0.57,7.1-2.58,8.82l-12.94,7.09
	c-3.15,1.72-7.1,0.57-8.82-2.58l-34.36-61.92C217.22,507.3,218.37,503.35,221.52,501.62z"/>
<path class="st3" d="M131.56,387.68c-3.42-0.01-6.25-2.66-6.48-6.08l-0.96-14.73c-0.23-3.58,2.48-6.68,6.06-6.91l115.39-7.56
	c7.65-0.5,14.26,5.29,14.76,12.94c0.5,7.65-5.29,14.26-12.94,14.76l-115.39,7.56C131.85,387.67,131.7,387.68,131.56,387.68z"/>
<path class="st4" d="M154.31,389.58c-3.49-0.01-6.36-2.77-6.49-6.26l-0.82-22c-0.13-3.59,2.67-6.6,6.25-6.74c0,0,0,0,0,0l94.89-3.55
	c3.59-0.13,6.6,2.67,6.74,6.25l0.82,22c0.13,3.59-2.67,6.6-6.25,6.74c0,0,0,0,0,0l-94.89,3.55
	C154.47,389.58,154.39,389.58,154.31,389.58z"/>
<path class="st0" d="M306.67,622.16v-47.74c0-41.67-18.18-81.64-50.62-107.8c-24.25-19.55-59.37-34.17-109.68-30.9l19.17-76.67
	L0,472.31l162.05,113.26l-16.55-72.31C145.49,513.25,246.55,494.09,306.67,622.16z"/>
<path class="st2" d="M190.9,546.7l-11.94-8.68c-2.9-2.11-3.54-6.18-1.43-9.08l72.34-99.49c2.11-2.9,6.18-3.54,9.08-1.43l11.94,8.68
	c2.9,2.11,3.54,6.18,1.43,9.08l-72.34,99.49C197.87,548.16,193.81,548.8,190.9,546.7z"/>
<path class="st2" d="M177.6,528.97l9.56-11.24c2.33-2.73,6.43-3.06,9.16-0.74l54.19,45.59c2.73,2.33,3.06,6.43,0.74,9.16
	l-9.56,11.24c-2.33,2.73-6.43,3.06-9.16,0.74l-54.19-45.59C175.61,535.8,175.28,531.71,177.6,528.97z"/>
<circle class="st3" cx="243.08" cy="276.97" r="51"/>
<path class="st2" d="M220.65,299.43c-1.73,0.04-3.44-0.3-5.03-0.98c-2.17-1.03-3.77-2.96-4.38-5.28c-0.46-1.65-0.13-3.41,0.9-4.78
	c1.33-1.71,3.63-2.52,6.34-2.31l-6.7-18.75l1.88-0.67l7.87,22.04l-1.78-0.4c-2.06-0.47-4.73-0.36-6.04,1.33
	c-0.65,0.88-0.84,2.02-0.53,3.07c0.46,1.73,1.65,3.16,3.26,3.94c2.78,1.26,6.04,0.81,9.7,0.15l0.36,1.97
	C224.58,299.14,222.62,299.37,220.65,299.43z"/>
<rect x="192.09" y="272.09" transform="matrix(0.9786 -0.2056 0.2056 0.9786 -51.9262 46.4325)" class="st2" width="10.77" height="2"/>
<rect x="225.36" y="265.1" transform="matrix(0.9786 -0.2056 0.2056 0.9786 -49.7781 53.1239)" class="st2" width="10.77" height="2"/>
<path class="st4" d="M285.67,495.85h-86c-4.69-0.01-8.49-3.81-8.5-8.5l18-138.06c0.03-4.67,3.83-8.44,8.5-8.44h30.52
	c25.38,0.03,45.95,20.6,45.98,45.98v100.52C294.16,492.04,290.36,495.84,285.67,495.85z"/>
<path class="st3" d="M151.37,438.2c-2.56,0-4.89-1.5-5.94-3.84l-6.04-13.47c-1.47-3.28-0.01-7.12,3.27-8.59c0,0,0,0,0,0l105.5-47.33
	c6.99-3.14,15.21-0.02,18.35,6.97c3.14,6.99,0.02,15.21-6.97,18.35c0,0-0.01,0-0.01,0.01l-105.5,47.33
	C153.19,438.01,152.28,438.2,151.37,438.2z"/>
<path class="st4" d="M182.14,431.25c-2.56,0-4.89-1.5-5.94-3.84l-10.32-23c-1.46-3.28,0-7.12,3.27-8.59l86.63-38.86
	c3.27-1.47,7.12-0.01,8.59,3.27c0,0,0,0,0,0l10.32,23c1.47,3.28,0.01,7.12-3.27,8.59c0,0,0,0,0,0l-86.63,38.86
	C183.96,431.06,183.06,431.25,182.14,431.25z"/>
<path class="st2" d="M231.77,244.99c-8.3-3.06-15.13,5-22.65,6.84c-7.2,1.77-14.95-2.39-18.8-8.44c-4.49-7.06-3.37-16.23,0.71-23.2
	c4.47-7.63,12.43-12.32,20.86-14.36c9.67-2.35,19.74-1.19,29.28,1.19c9.15,2.14,18.03,5.34,26.44,9.52
	c7.61,3.94,14.82,9.33,19.27,16.79c4.04,6.78,6.04,15.22,4.04,22.99c-1.1,4.01-3.22,7.67-6.15,10.63c-3.01,3.19-6.46,5.95-9.27,9.34
	c-4.25,5.11-7.1,13.5-2.91,19.55c0.91,1.32,2.13,2.4,3.55,3.15c1.71,0.89,3.23-1.7,1.51-2.59c-3.01-1.57-4.11-4.75-4.02-8
	c0.16-3.68,1.57-7.2,3.99-9.98c2.94-3.54,6.58-6.4,9.69-9.78c3.01-3.15,5.2-6.98,6.41-11.16c2.21-8.09,0.48-16.9-3.43-24.19
	c-4.23-7.89-11.32-13.84-19.03-18.17c-8.39-4.71-17.72-7.87-26.99-10.37c-9.94-2.69-20.38-4.2-30.6-2.34
	c-8.87,1.61-17.53,5.89-23.11,13.14c-5.2,6.76-7.69,15.97-5.17,24.29c2.43,7.67,8.82,13.42,16.7,15.05c3.93,0.72,8,0.19,11.61-1.52
	c3.9-1.75,7.44-4.46,11.58-5.62c1.86-0.57,3.85-0.52,5.68,0.15C232.78,248.55,233.57,245.65,231.77,244.99z"/>
<path class="st0" d="M598.67,448.19v-47.74c0-41.67,18.18-81.64,50.62-107.8c24.25-19.55,59.37-34.17,109.68-30.9l-19.17-76.67
	l165.53,113.26L743.29,411.6l16.55-72.31C759.84,339.29,658.78,320.12,598.67,448.19z"/>
<path class="st3" d="M688.65,209.34c-5.97-4.81-6.9-13.55-2.08-19.52c2.31-2.86,5.67-4.69,9.33-5.08l114.98-12.28
	c3.57-0.38,6.77,2.21,7.15,5.77l-0.5,0.05l0.5-0.05l1.57,14.68c0.38,3.57-2.2,6.77-5.77,7.15c0,0,0,0,0,0l-114.98,12.28
	c-0.5,0.05-1,0.08-1.5,0.08C694.17,212.42,691.1,211.33,688.65,209.34z"/>
<path class="st3" d="M722.52,310.72v-14.76c0-3.59,2.91-6.5,6.5-6.5h123.01c3.59,0,6.5,2.91,6.5,6.5v14.76c0,3.59-2.91,6.5-6.5,6.5
	H729.02C725.43,317.22,722.52,314.31,722.52,310.72z"/>
<path class="st3" d="M663.7,311.44c-1.54-0.77-2.71-2.13-3.25-3.77l-4.63-14.02c-1.12-3.41,0.73-7.08,4.13-8.21l116.81-38.57
	c3.41-1.13,7.08,0.73,8.21,4.13l-0.47,0.16l0.47-0.16l4.63,14.02c1.12,3.41-0.73,7.08-4.13,8.21l-116.81,38.57
	C667.02,312.35,665.24,312.22,663.7,311.44L663.7,311.44z"/>
<path class="st3" d="M816.84,315.77l-52.42-47.27c-2.66-2.41-2.87-6.51-0.47-9.18l9.88-10.96c2.4-2.67,6.51-2.88,9.18-0.47
	l52.42,47.27c2.66,2.41,2.87,6.51,0.47,9.18l-9.88,10.96c-1.15,1.28-2.77,2.05-4.49,2.14c-0.11,0.01-0.23,0.01-0.34,0.01
	C819.58,317.45,818.03,316.85,816.84,315.77z"/>
<circle class="st3" cx="683.56" cy="94.96" r="51"/>
<path class="st4" d="M623.87,297.36c-7.27-12.41-7.27-27.78,0-40.19l54.06-93.64c1.8-3.11,5.77-4.17,8.88-2.38
	c0.99,0.57,1.81,1.39,2.38,2.38l83.24,144.18c1.79,3.11,0.73,7.08-2.38,8.88c-0.99,0.57-2.11,0.87-3.25,0.87H658.68
	C644.3,317.54,630.99,309.86,623.87,297.36z"/>
<path class="st2" d="M725.6,114.37c3.31-0.09,7.42-0.21,10.59-2.52c1.91-1.45,3.08-3.68,3.2-6.07c0.12-1.71-0.57-3.37-1.86-4.49
	c-1.66-1.4-4.07-1.73-6.68-0.96l2.7-19.73l-1.98-0.27l-3.17,23.19l1.65-0.76c1.92-0.88,4.55-1.33,6.19,0.06
	c0.81,0.73,1.24,1.8,1.15,2.9c-0.1,1.78-0.97,3.44-2.38,4.53c-2.47,1.8-5.75,2.03-9.47,2.14L725.6,114.37z"/>
<rect x="709.35" y="82.29" class="st2" width="10.77" height="2"/>
<path class="st2" d="M653.32,34.81c-2.86-11.71-10.6-21.63-21.25-27.28c-10.94-5.62-23.82-6.02-35.08-1.09
	c-11.54,4.95-20.13,14.98-23.24,27.14c-1.58,6.04-1.8,12.35-0.64,18.49c1.42,6.5,4.18,12.63,8.1,18c3.95,5.72,8.6,10.91,12.86,16.39
	c4.28,5.49,8.18,11.27,11.67,17.3c10.51,18.16,17.17,38.28,19.57,59.13c0.81,6.29,0.97,12.66,0.46,18.98
	c-1.15,12.29-5.91,24.32-16.83,31.01c-5.81,3.55-12.51,5.39-19.14,6.67c-7.44,1.58-15.06,2.17-22.66,1.77
	c-12.84-0.91-25.7-6.27-33.15-17.19c-1.65-2.43-2.94-5.09-3.84-7.89c-0.59-1.84,2.3-2.63,2.89-0.8c3.95,12.25,15.94,19.8,28.07,22.1
	c7.56,1.27,15.27,1.26,22.83-0.02c6.86-1.02,13.93-2.44,20.22-5.47c5.71-2.67,10.45-7.05,13.56-12.54
	c2.81-5.3,4.51-11.11,4.99-17.09c1.34-13.08-0.84-26.63-4.1-39.28c-3.49-13.54-8.84-26.54-15.9-38.61
	c-3.53-6.03-7.47-11.81-11.81-17.29c-4.3-5.42-8.88-10.63-12.76-16.37c-3.83-5.41-6.52-11.54-7.93-18.02
	c-1.19-6.22-1.08-12.61,0.33-18.79c2.75-12.33,10.75-22.84,21.89-28.77c10.81-5.7,23.98-7.07,35.54-2.87
	c11.22,4.14,20.35,12.54,25.41,23.37c1.22,2.63,2.17,5.37,2.84,8.19C656.66,35.89,653.76,36.69,653.32,34.81L653.32,34.81z"/>
<path class="st2" d="M643.57,37.25c-3.89-11.1-15.5-17.5-26.97-14.86c-1.88,0.44-2.68-2.45-0.8-2.89
	c13.08-3.21,26.42,4.17,30.66,16.96C647.1,38.28,644.2,39.07,643.57,37.25L643.57,37.25z"/>
<path class="st2" d="M643.12,48.09c-1.2-2.79,0.09-6.02,2.88-7.22l13.78-5.92c2.79-1.2,6.03,0.09,7.22,2.88
	c1.2,2.79-0.09,6.03-2.88,7.22l-13.78,5.92C647.55,52.17,644.32,50.88,643.12,48.09z"/>
<path class="st3" d="M677.04,329.17l-14.71-1.19c-3.58-0.29-6.24-3.43-5.95-7l9.36-115.26c0.62-7.64,7.31-13.34,14.95-12.72
	c7.64,0.62,13.34,7.31,12.72,14.95c0,0.01,0,0.01,0,0.02l-9.36,115.25c-0.27,3.37-3.09,5.97-6.47,5.97
	C677.39,329.19,677.22,329.18,677.04,329.17z"/>
<path class="st5" d="M12.97,99.69C7.71,87.39,14.92,71.36,27.6,67.13s28.07,4.27,31.24,17.26c-7.32-17.86,1.22-38.26,19.08-45.58
	s38.26,1.22,45.58,19.08c2.46,6.01,3.2,12.59,2.13,19c7.64-11.27,24.05-15.53,36.21-9.4s18.49,21.85,13.98,34.7l-167.38-0.3"/>
<path class="st5" d="M351.97,239.69c-5.26-12.29,1.95-28.33,14.63-32.55c12.68-4.23,28.07,4.27,31.24,17.26
	c-7.32-17.86,1.22-38.26,19.08-45.58c17.86-7.32,38.26,1.22,45.58,19.08c2.46,6.01,3.2,12.59,2.13,19
	c7.64-11.27,24.05-15.53,36.21-9.4c12.16,6.13,18.49,21.85,13.98,34.7l-167.38-0.3"/>
</svg>
