<?xml version="1.0" encoding="utf-8"?>
<!-- Generator: Adobe Illustrator 24.1.0, SVG Export Plug-In . SVG Version: 6.00 Build 0)  -->
<svg version="1.1" id="fc98b6f9-21a0-4a6d-bd35-cd8a18cd4eab"
	 xmlns="http://www.w3.org/2000/svg" xmlns:xlink="http://www.w3.org/1999/xlink" x="0px" y="0px" viewBox="0 0 854.56 577.9"
	 style="enable-background:new 0 0 854.56 577.9;" xml:space="preserve">
<style type="text/css">
	.st0{fill:#CCCCCC;}
	.st1{fill:#E6E6E6;}
	.st2{fill:#2F2E41;}
	.st3{fill:#9CC22C;}
	.st4{fill:#FFB9B9;}
	.st5{fill:#3F3D56;}
	.st6{fill:#FFFFFF;}
</style>
<rect x="151.56" y="268" class="st0" width="110" height="123"/>
<polygon class="st1" points="95.56,576 39.56,576 33.56,528 101.56,528 "/>
<path class="st1" d="M208.01,541.23l-1.89,25.83c-0.33,4.53,3.07,8.47,7.6,8.8c0.37,0.03,0.73,0.03,1.1,0.01l13.27-0.8
	c2.31-0.14,4.07-2.13,3.93-4.44c-0.02-0.26-0.05-0.51-0.12-0.76l-7.37-29.46L208.01,541.23z"/>
<path class="st1" d="M319,556.51c15.62,3.65,26.77,8.85,34.1,15.87c2.61,2.48,6.03,3.95,9.62,4.13c4.6,0.24,8.35-0.27,11.18-1.54h0
	c1.47-0.65,2.48-2.05,2.62-3.65c0.17-1.63-0.55-3.22-1.89-4.17l-37.04-26.35l-15.73,6.29l-3.67,3.67c-1.42,1.42-1.42,3.72,0,5.14
	C318.44,556.14,318.71,556.35,319,556.51L319,556.51z"/>
<path class="st2" d="M270.94,134.69l-105.87-0.98c0.27-15.42,3.85-30.56,11.7-44.11c5.15-8.9,5.04-18.58,3.8-26.74
	c-1.92-12.59,2.54-25.48,12.44-33.49c7.56-6.14,17.11-9.3,26.84-8.88l2.06,0.09c13.61,0.57,25.99,8.01,32.87,19.77
	c3.44,6.18,4.83,13.28,3.96,20.3c-0.67,6.6,0.93,13.27,4.69,20C269.9,95.42,271.3,114.34,270.94,134.69z"/>
<path class="st3" d="M341.77,542.18L321,547.6L219.81,327.16l6.32,215.02h-20.78c-22.2-101.16-62.29-217.91-44.27-254.77
	l107.51-6.32L341.77,542.18z"/>
<circle class="st4" cx="218.91" cy="69.69" r="28.01"/>
<path class="st4" d="M243.3,121.18l-46.07-2.71c4.52-10.36,6.32-20.34,4.52-29.81h34.33C236,95.93,239.61,108.5,243.3,121.18z"/>
<polygon class="st3" points="272.21,289.22 171.03,296.45 181.42,117.11 199.03,112.15 218.91,116.66 238.78,106.72 251.43,111.24 
	"/>
<path class="st1" d="M188.19,418.41l-69.11-15.81c20.55-68.15,57.57-224.05,45.62-279.61l36.14-16.26L188.19,418.41z"/>
<path class="st1" d="M154.77,221.46l-26.2-16.26l22.34-65.44c2.49-6.75,7.27-12.42,13.49-16.03l7.53-4.36l-4.52,65.95L154.77,221.46
	z"/>
<path class="st1" d="M332.29,403.5c-21.81,12.62-76.34,19.66-100.28,10.84c-1.76-61.57-5.22-235.74,5.87-309.42l39.75,16.26
	l-3.61,48.78C255.01,211.7,310.2,357.05,332.29,403.5z"/>
<polygon class="st1" points="329.13,213.33 304.73,205.2 272.21,168.16 277.63,121.18 331.84,197.07 "/>
<path class="st4" d="M252.68,248.49c0.83,3.65,4.46,5.93,8.11,5.11l20.71-4.69l-2.99-13.22l-20.71,4.69
	C254.14,241.22,251.86,244.84,252.68,248.49L252.68,248.49z"/>
<path class="st2" d="M243.3,62.46c-15.56-6.4-30.92-6.86-46.07-0.9l-6.32-22.59h57.82L243.3,62.46z"/>
<path class="st1" d="M271.31,233.2l11.74,21.68c19.75-5.51,36.87-22.88,53.3-43.36l-4.52-14.45l-28.01,7.23L271.31,233.2z"/>
<path class="st5" d="M262.73,188.49h-3.61c0-51.11-10.52-86.73-20.78-86.73l-0.9-3.61c9.2,0,15.06,14.82,18.36,27.26
	C260.26,142.26,262.73,164.67,262.73,188.49z"/>
<path class="st5" d="M179.61,175.84H176c0-46.81,10.6-75.89,26.2-75.89l-0.9,3.61C190.5,103.56,179.61,125.91,179.61,175.84z"/>
<ellipse transform="matrix(0.1602 -0.9871 0.9871 0.1602 32.1805 416.6013)" class="st5" cx="260.92" cy="189.39" rx="9.03" ry="9.03"/>
<path class="st5" d="M165.16,197.52h-3.61c0-12.95,7.29-23.49,16.26-23.49v3.61C170.83,177.64,165.16,186.56,165.16,197.52z"/>
<path class="st5" d="M194.06,197.52h-3.61c0-10.96-5.67-19.88-12.65-19.88v-3.61C186.77,174.03,194.06,184.57,194.06,197.52z"/>
<circle class="st5" cx="192.26" cy="198.42" r="3.61"/>
<circle class="st5" cx="163.35" cy="198.42" r="3.61"/>
<polygon class="st3" points="118.18,165.19 140.72,169.22 192.26,242.49 164.88,236.05 "/>
<path class="st5" d="M114.18,164.3c-1.06,0.02-1.9,0.89-1.89,1.95c0.01,0.36,0.11,0.72,0.32,1.02l48.17,73.09
	c0.27,0.41,0.68,0.7,1.16,0.81l22.41,5.27c1.03,0.24,2.06-0.4,2.3-1.42c0.13-0.53,0.02-1.09-0.3-1.54l-52.89-75.2
	c-0.29-0.41-0.73-0.7-1.23-0.78l-17.7-3.16C114.42,164.31,114.3,164.3,114.18,164.3z"/>
<path class="st4" d="M144.23,216.55l1.34,13.49l21.13-2.1c3.72-0.37,6.44-3.7,6.07-7.42c-0.37-3.72-3.69-6.43-7.4-6.07
	L144.23,216.55z"/>
<path class="st1" d="M125.86,214.99c0.06,9.57,7.83,17.3,17.41,17.31h3.47l2.53-21.08l-20.94-7.54L125.86,214.99z"/>
<rect x="442.56" class="st1" width="412" height="217"/>
<path class="st6" d="M454.56,205h388V12h-388V205z"/>
<rect x="484.56" y="40" class="st5" width="138" height="138"/>
<circle class="st3" cx="589.56" cy="99" r="4"/>
<circle class="st3" cx="574.56" cy="85" r="4"/>
<path class="st3" d="M572.56,99c-1.47,0-2.91,0.41-4.17,1.18c-1.1-1.66-2.4-3.18-3.86-4.54c0.02-0.21,0.03-0.43,0.03-0.65
	c0-4.42-3.57-8-7.99-8c-2.07,0-4.07,0.8-5.56,2.24c-2.14-0.3-4.32-0.32-6.46-0.06c0-0.06,0.01-0.12,0.01-0.19
	c0.01-4.42-3.57-8-7.99-8.01s-8,3.57-8.01,7.99c0,2.31,1,4.52,2.74,6.04c-1.34,1.15-2.55,2.43-3.62,3.83
	c-3.4-2.83-8.44-2.36-11.27,1.03c-2.83,3.4-2.36,8.44,1.03,11.27c1.44,1.2,3.25,1.85,5.12,1.85l0.03,0c-0.01,0.33-0.03,0.67-0.03,1
	c0,2.01,0.24,4.02,0.72,5.97c-7.75,2.92-11.67,11.56-8.75,19.31s11.56,11.67,19.31,8.75c4.3-1.62,7.62-5.11,9.01-9.49
	c5.56,1.07,11.33,0.21,16.34-2.42c1.73,4.07,6.42,5.96,10.49,4.24s5.96-6.42,4.24-10.49c-0.81-1.91-2.33-3.43-4.24-4.24
	c1.73-3.29,2.71-6.92,2.85-10.64l0.03,0c4.42,0,8-3.58,8-8S576.97,99,572.56,99L572.56,99z"/>
<rect x="530.56" y="37" class="st1" width="40" height="6"/>
<rect x="660.56" y="40" class="st5" width="138" height="138"/>
<circle class="st3" cx="755.76" cy="131.8" r="1.8"/>
<circle class="st3" cx="749.01" cy="125.5" r="1.8"/>
<path class="st3" d="M748.11,131.8c-0.66,0-1.31,0.18-1.88,0.53c-0.5-0.75-1.08-1.43-1.74-2.04c0.01-0.1,0.01-0.19,0.01-0.29
	c0-1.99-1.61-3.6-3.59-3.6c-0.93,0-1.83,0.36-2.5,1.01c-0.96-0.14-1.94-0.15-2.91-0.03c0-0.03,0-0.06,0-0.08
	c0-1.99-1.61-3.6-3.6-3.6c-1.99,0-3.6,1.61-3.6,3.6c0,1.04,0.45,2.03,1.23,2.72c-0.6,0.52-1.15,1.09-1.63,1.73
	c-1.53-1.27-3.8-1.06-5.07,0.46c-1.27,1.53-1.06,3.8,0.46,5.07c0.65,0.54,1.46,0.83,2.3,0.83l0.01,0c-0.01,0.15-0.01,0.3-0.01,0.45
	c0,0.91,0.11,1.81,0.33,2.69c-3.49,1.31-5.25,5.2-3.94,8.69c1.31,3.49,5.2,5.25,8.69,3.94c1.93-0.73,3.43-2.3,4.05-4.27
	c2.5,0.48,5.1,0.1,7.35-1.09c0.78,1.83,2.89,2.68,4.72,1.91c1.83-0.78,2.68-2.89,1.91-4.72c-0.36-0.86-1.05-1.54-1.91-1.91
	c0.78-1.48,1.22-3.12,1.28-4.79l0.01,0c1.99,0,3.6-1.61,3.6-3.6S750.09,131.8,748.11,131.8L748.11,131.8z"/>
<circle class="st3" cx="769.88" cy="97.64" r="1.8"/>
<circle class="st3" cx="774.11" cy="89.44" r="1.8"/>
<path class="st3" d="M767.8,90.28c-0.18-0.64-0.53-1.21-1.02-1.66c0.58-0.68,1.09-1.43,1.49-2.23c0.09-0.02,0.19-0.04,0.28-0.06
	c1.91-0.54,3.03-2.52,2.49-4.44c-0.25-0.9-0.84-1.66-1.65-2.13c-0.13-0.97-0.39-1.91-0.76-2.81c0.03-0.01,0.05-0.01,0.08-0.02
	c1.91-0.54,3.03-2.52,2.49-4.44c-0.54-1.91-2.52-3.03-4.44-2.49c-1,0.28-1.83,0.98-2.28,1.92c-0.66-0.44-1.37-0.81-2.1-1.1
	c0.81-1.82-0.01-3.94-1.82-4.75c-1.82-0.81-3.94,0.01-4.75,1.82c-0.34,0.77-0.41,1.63-0.18,2.44l0,0.01
	c-0.15,0.03-0.29,0.07-0.44,0.11c-0.87,0.25-1.71,0.6-2.5,1.04c-2.21-3-6.43-3.64-9.43-1.44c-3,2.21-3.64,6.43-1.44,9.43
	c1.22,1.66,3.14,2.68,5.21,2.74c0.22,2.54,1.29,4.93,3.04,6.78c-1.55,1.24-1.8,3.51-0.56,5.06s3.51,1.8,5.06,0.56
	c0.73-0.58,1.2-1.43,1.32-2.35c1.64,0.35,3.33,0.33,4.95-0.06l0,0.01c0.54,1.91,2.53,3.03,4.44,2.49
	C767.23,94.18,768.34,92.19,767.8,90.28C767.8,90.28,767.8,90.28,767.8,90.28L767.8,90.28z"/>
<circle class="st3" cx="700.16" cy="73.18" r="1.8"/>
<circle class="st3" cx="690.96" cy="73.92" r="1.8"/>
<path class="st3" d="M695,78.83c-0.45,0.49-0.75,1.09-0.87,1.74c-0.89-0.14-1.79-0.17-2.68-0.09c-0.07-0.07-0.13-0.14-0.2-0.21
	c-1.47-1.34-3.74-1.24-5.08,0.23c-0.63,0.69-0.97,1.6-0.94,2.53c-0.75,0.62-1.42,1.34-1.98,2.13c-0.02-0.02-0.04-0.04-0.06-0.06
	c-1.47-1.34-3.74-1.24-5.09,0.23c-1.34,1.47-1.24,3.74,0.23,5.09c0.77,0.7,1.8,1.04,2.84,0.92c-0.03,0.79,0.03,1.59,0.17,2.37
	c-1.97,0.27-3.35,2.09-3.08,4.06c0.27,1.97,2.09,3.35,4.06,3.08c0.83-0.11,1.6-0.52,2.17-1.14l0.01-0.01
	c0.11,0.11,0.21,0.21,0.33,0.31c0.67,0.61,1.41,1.14,2.2,1.57c-1.38,3.46,0.3,7.39,3.76,8.77c3.46,1.38,7.39-0.3,8.77-3.76
	c0.77-1.92,0.61-4.08-0.42-5.87c2.04-1.52,3.51-3.7,4.15-6.17c1.88,0.66,3.93-0.33,4.59-2.2c0.66-1.88-0.33-3.93-2.2-4.59
	c-0.88-0.31-1.85-0.27-2.69,0.12c-0.57-1.57-1.48-3-2.67-4.17l0.01-0.01c1.34-1.46,1.25-3.74-0.22-5.09
	c-1.46-1.34-3.74-1.25-5.09,0.22C695.01,78.82,695.01,78.83,695,78.83L695,78.83z"/>
<rect x="706.56" y="37" class="st1" width="40" height="6"/>
<path class="st1" d="M25.18,510.24c14.42,19.31,44.35,21.34,44.35,21.34s6.55-29.28-7.87-48.59s-44.35-21.34-44.35-21.34
	S10.76,490.93,25.18,510.24z"/>
<path class="st1" d="M98.63,517.5c-9.52,12.74-29.27,14.08-29.27,14.08s-4.32-19.32,5.19-32.06c9.52-12.74,29.27-14.08,29.27-14.08
	S108.15,504.76,98.63,517.5z"/>
<rect y="575.66" class="st5" width="519.56" height="2.24"/>
</svg>
