<?xml version="1.0" encoding="utf-8"?>
<!-- Generator: Adobe Illustrator 24.1.0, SVG Export Plug-In . SVG Version: 6.00 Build 0)  -->
<svg version="1.1" id="b3df86d2-2022-47c6-a781-bb5144daf06b"
	 xmlns="http://www.w3.org/2000/svg" xmlns:xlink="http://www.w3.org/1999/xlink" x="0px" y="0px" viewBox="0 0 802.03 590.92"
	 style="enable-background:new 0 0 802.03 590.92;" xml:space="preserve">
<style type="text/css">
	.st0{fill:#E6E6E6;}
	.st1{fill:#CCCCCC;}
	.st2{fill:#9CC22C;}
	.st3{opacity:0.2;enable-background:new    ;}
	.st4{fill:#2F2E41;}
	.st5{fill:#A0616A;}
	.st6{fill:#575A89;}
	.st7{fill:#3F3D56;}
	.st8{fill:#FFFFFF;}
	.st9{fill:#B3B3B3;}
	.st10{fill:#D0CDE1;}
</style>
<rect x="464.91" y="218.81" class="st0" width="337.12" height="9.89"/>
<rect x="492.77" y="136.1" class="st0" width="85.4" height="85.4"/>
<rect x="509.86" y="153.18" class="st1" width="51.24" height="51.24"/>
<rect x="684.26" y="136.1" class="st0" width="21.58" height="85.4"/>
<rect x="684.26" y="149.59" class="st1" width="21.58" height="9.89"/>
<rect x="684.26" y="192.74" class="st1" width="21.58" height="9.89"/>
<rect x="651" y="136.1" class="st0" width="21.58" height="85.4"/>
<rect x="651" y="149.59" class="st1" width="21.58" height="9.89"/>
<rect x="651" y="192.74" class="st1" width="21.58" height="9.89"/>
<rect x="722.92" y="136.1" transform="matrix(0.8962 -0.4437 0.4437 0.8962 -3.1601 344.1008)" class="st0" width="21.58" height="85.4"/>
<rect x="712.15" y="152.11" transform="matrix(0.8962 -0.4437 0.4437 0.8962 5.3733 337.0641)" class="st1" width="21.58" height="9.89"/>
<rect x="731.29" y="190.78" transform="matrix(0.8962 -0.4437 0.4437 0.8962 -9.7971 349.5738)" class="st1" width="21.58" height="9.89"/>
<polygon class="st0" points="524.69,170.38 535.55,189.2 546.42,208.02 524.69,208.02 502.96,208.02 513.82,189.2 "/>
<polygon class="st0" points="543.57,173.98 554.43,192.8 565.3,211.62 543.57,211.62 521.84,211.62 532.7,192.8 "/>
<circle class="st0" cx="551.21" cy="162.17" r="6.29"/>
<rect x="464.91" y="83.06" class="st0" width="337.12" height="9.89"/>
<rect x="688.75" y="0.35" class="st0" width="85.4" height="85.4"/>
<rect x="705.84" y="17.43" class="st1" width="51.24" height="51.24"/>
<rect x="561.1" y="0.35" class="st0" width="21.58" height="85.4"/>
<rect x="561.1" y="13.84" class="st1" width="21.58" height="9.89"/>
<rect x="561.1" y="56.99" class="st1" width="21.58" height="9.89"/>
<rect x="594.36" y="0.35" class="st0" width="21.58" height="85.4"/>
<rect x="594.36" y="13.84" class="st1" width="21.58" height="9.89"/>
<rect x="594.36" y="56.99" class="st1" width="21.58" height="9.89"/>
<rect x="490.53" y="32.27" transform="matrix(0.4437 -0.8962 0.8962 0.4437 258.0549 501.821)" class="st0" width="85.4" height="21.58"/>
<rect x="539.05" y="10.51" transform="matrix(0.4437 -0.8962 0.8962 0.4437 283.5405 499.3712)" class="st1" width="9.89" height="21.58"/>
<rect x="519.91" y="49.19" transform="matrix(0.4437 -0.8962 0.8962 0.4437 238.2328 503.7264)" class="st1" width="9.89" height="21.58"/>
<polygon class="st0" points="742.24,34.63 731.38,53.45 720.51,72.27 742.24,72.27 763.97,72.27 753.11,53.45 "/>
<polygon class="st0" points="723.36,38.23 712.5,57.05 701.64,75.87 723.36,75.87 745.1,75.87 734.23,57.05 "/>
<circle class="st0" cx="715.72" cy="26.42" r="6.29"/>
<rect x="464.91" y="354.56" class="st0" width="337.12" height="9.89"/>
<rect x="688.75" y="271.85" class="st0" width="85.4" height="85.4"/>
<rect x="705.84" y="288.93" class="st1" width="51.24" height="51.24"/>
<rect x="561.1" y="271.85" class="st0" width="21.58" height="85.4"/>
<rect x="561.1" y="285.33" class="st1" width="21.58" height="9.89"/>
<rect x="561.1" y="328.48" class="st1" width="21.58" height="9.89"/>
<rect x="594.36" y="271.85" class="st0" width="21.58" height="85.4"/>
<rect x="594.36" y="285.33" class="st1" width="21.58" height="9.89"/>
<rect x="594.36" y="328.48" class="st1" width="21.58" height="9.89"/>
<rect x="490.53" y="303.76" transform="matrix(0.4437 -0.8962 0.8962 0.4437 14.7464 652.8563)" class="st0" width="85.4" height="21.58"/>
<rect x="539.05" y="282.01" transform="matrix(0.4437 -0.8962 0.8962 0.4437 40.2319 650.4065)" class="st1" width="9.89" height="21.58"/>
<rect x="519.91" y="320.68" transform="matrix(0.4437 -0.8962 0.8962 0.4437 -5.0757 654.7617)" class="st1" width="9.89" height="21.58"/>
<polygon class="st0" points="742.24,306.13 731.38,324.95 720.51,343.77 742.24,343.77 763.97,343.77 753.11,324.95 "/>
<polygon class="st0" points="723.36,309.73 712.5,328.54 701.64,347.36 723.36,347.36 745.1,347.36 734.23,328.54 "/>
<circle class="st0" cx="715.72" cy="297.92" r="6.29"/>
<ellipse class="st0" cx="397.13" cy="562.71" rx="397.13" ry="28.21"/>
<path class="st2" d="M707.39,578.51c-64.76-11.53-135.57-9.61-209.85,0c33.86-28.58,63.07-57.16,29.22-85.74
	c66.04,13.62,75.29,12.25,148.75,0C658.47,521.34,690.35,549.92,707.39,578.51z"/>
<path class="st3" d="M707.39,578.51c-64.76-11.53-135.57-9.61-209.85,0c33.86-28.58,63.07-57.16,29.22-85.74
	c66.04,13.62,75.29,12.25,148.75,0C658.47,521.34,690.35,549.92,707.39,578.51z"/>
<path class="st2" d="M691.59,566.31c-55.01-9.2-115.16-7.67-178.26,0c28.76-22.81,53.58-45.63,24.82-68.44
	c56.1,10.88,63.96,9.77,126.36,0C650.04,520.68,677.12,543.5,691.59,566.31z"/>
<circle class="st4" cx="670.64" cy="500.24" r="29.31"/>
<polygon class="st5" points="537.59,466.25 557.9,469.63 568.05,498.97 538.72,517.02 504.87,466.25 536.46,466.25 "/>
<circle class="st5" cx="595.13" cy="463.99" r="47.38"/>
<path class="st4" d="M333.39,291.38c0,0-115.08,12.41-135.39,10.15s-29.33-4.51-29.33-4.51s-13.54,18.05-6.77,25.95
	c3.79,4.55,8.38,8.37,13.54,11.28c0,0,12.41-3.38,21.44,0s100.41,18.05,116.21,4.51S333.39,291.38,333.39,291.38z"/>
<path class="st4" d="M341.28,542.97c0,0-75.59-21.44-89.13-116.21v-9.03c0,0-14.96,26.24-20.31,31.59
	c-6.21,6.21-28.21,62.05-27.08,67.69c1.13,5.64,0,7.9,0,7.9l-32.72-3.38v-10.15c0,0,17.49-52.46,18.62-64.87
	s43.44-98.72,43.44-98.72s15.79-32.72,42.87,0c27.08,32.72,29.33,55.28,29.33,55.28l34.97,67.69V542.97z"/>
<path class="st4" d="M172.05,293.63l-36.1-12.41c0,0-33.85-24.82-25.95,0s44,78.97,54.15,73.33s22.37-19.64,19.64-21.67
	S163.03,316.2,172.05,293.63z"/>
<path class="st4" d="M176.42,504.72l-29.14,14.23c0,0-35.24,5.42-15.59,15.59c19.66,10.17,73.88,21.01,76.59,11.52
	s1.64-25.24-1.22-24.82S184.55,523.69,176.42,504.72z"/>
<path class="st6" d="M326.62,468.51c0,0-14.67,63.18,10.15,76.72c24.82,13.54,198.56,15.79,212.1-9.03
	c13.54-24.82,6.77-24.82,6.77-24.82l-36.1-40.62l29.33-2.26c0,0,0-9.03-10.15-10.15s-41.74-12.41-68.82-4.51
	s-42.87-15.79-42.87-15.79L326.62,468.51z"/>
<polygon class="st7" points="307.44,271.07 288.26,375.99 420.26,360.2 443.95,265.43 "/>
<polygon class="st8" points="311.39,275.02 295.59,368.66 415.74,354.56 438.87,269.38 "/>
<polygon class="st9" points="292.77,377.12 288.26,375.99 286,380.51 322.1,480.92 325.5,479.62 326.62,473.02 "/>
<polygon class="st10" points="288.26,374.86 324.36,479.79 460.87,459.48 420.26,360.2 "/>
<polygon class="st7" points="306.31,371.48 306.31,377.12 406.72,365.84 405.59,360.2 "/>
<polygon class="st7" points="308.57,382.76 324.36,426.76 427.03,414.35 408.98,372.61 "/>
<path class="st5" d="M437.18,444.81l-3.38-9.03c0,0-25.95-45.13-39.49-36.1s28.21,53.03,28.21,53.03h13.54L437.18,444.81z"/>
<path class="st5" d="M351.44,451.58l-3.38-13.54c0,0-9.03-41.74,6.77-39.49s20.31,41.74,20.31,41.74l-1.13,9.03L351.44,451.58z"/>
<path class="st6" d="M378.51,445.94c0,0-29.33-4.51-30.46,2.26s-6.77,108.31,21.44,111.69s168.1,18.05,153.44-16.92
	s-37.23-30.46-37.23-30.46l-95.9,10.15L378.51,445.94z"/>
<polygon class="st6" points="467.08,458.92 437.18,438.04 417.44,453.27 442.26,480.35 "/>
<polygon class="st3" points="386.98,479.22 391.49,522.1 469.33,517.58 401.64,516.46 "/>
<circle class="st4" cx="618.52" cy="472.6" r="56.41"/>
<polygon class="st2" points="328.31,307.74 398.26,305.3 405.03,279.53 332.82,281.71 "/>
<polygon class="st0" points="310.26,322.4 416.31,319.02 417.44,314.51 311.39,318.24 "/>
<polygon class="st0" points="308,333.68 414.05,330.3 415.18,325.79 309.13,329.52 "/>
<polygon class="st0" points="306.87,342.71 412.92,339.33 414.05,334.81 308,338.55 "/>
</svg>
