<?xml version="1.0" encoding="utf-8"?>
<!-- Generator: Adobe Illustrator 24.1.0, SVG Export Plug-In . SVG Version: 6.00 Build 0)  -->
<svg version="1.1" id="ef5a821c-0415-4aa8-b37e-a4b84ad98d37"
	 xmlns="http://www.w3.org/2000/svg" xmlns:xlink="http://www.w3.org/1999/xlink" x="0px" y="0px" viewBox="0 0 831.06 647"
	 style="enable-background:new 0 0 831.06 647;" xml:space="preserve">
<style type="text/css">
	.st0{fill:#E6E6E6;}
	.st1{fill:#FFFFFF;}
	.st2{opacity:0.5;fill:#9CC22C;}
	.st3{fill:#9CC22C;}
	.st4{fill:#FFB9B9;}
	.st5{fill:#2F2E41;}
</style>
<path class="st0" d="M31.95,0C14.31,0.02,0.02,14.31,0,31.95v583.11c0.02,17.63,14.31,31.93,31.95,31.95h319.4
	c17.63-0.02,31.93-14.31,31.95-31.95V31.95C383.27,14.31,368.98,0.02,351.34,0H31.95z"/>
<path class="st1" d="M42.39,18.15c-13.38,0.02-24.22,10.86-24.24,24.24v562.23c0.01,13.38,10.86,24.22,24.24,24.24H340.9
	c13.38-0.02,24.22-10.86,24.24-24.24V42.39c-0.02-13.38-10.86-24.22-24.24-24.24L42.39,18.15z"/>
<path class="st0" d="M335.78,136.65H47.51c-2.95,0-5.33-2.39-5.34-5.34V59.8c0-2.95,2.39-5.33,5.34-5.34h288.27
	c2.95,0,5.33,2.39,5.34,5.34v71.51C341.11,134.26,338.73,136.64,335.78,136.65z M47.51,56.6c-1.77,0-3.2,1.43-3.2,3.2v71.51
	c0,1.77,1.43,3.2,3.2,3.2h288.27c1.77,0,3.2-1.43,3.2-3.2V59.8c0-1.77-1.43-3.2-3.2-3.2L47.51,56.6z"/>
<path class="st0" d="M335.78,419.58H47.51c-2.95,0-5.33-2.39-5.34-5.34V281.87c0-2.95,2.39-5.33,5.34-5.34h288.27
	c2.95,0,5.33,2.39,5.34,5.34v132.36C341.11,417.18,338.73,419.57,335.78,419.58z M47.51,278.67c-1.77,0-3.2,1.43-3.2,3.2v132.36
	c0,1.77,1.43,3.2,3.2,3.2h288.27c1.77,0,3.2-1.43,3.2-3.2V281.87c0-1.77-1.43-3.2-3.2-3.2L47.51,278.67z"/>
<path class="st0" d="M333.64,247.68H205.52c-2.95,0-5.33-2.39-5.34-5.34v-71.51c0-2.95,2.39-5.33,5.34-5.34h128.12
	c2.95,0,5.33,2.39,5.34,5.34v71.51C338.98,245.29,336.59,247.68,333.64,247.68z M205.52,167.64c-1.77,0-3.2,1.43-3.2,3.2v71.51
	c0,1.77,1.43,3.2,3.2,3.2h128.12c1.77,0,3.2-1.43,3.2-3.2v-71.51c0-1.77-1.43-3.2-3.2-3.2L205.52,167.64z"/>
<path class="st0" d="M175.63,592.54H47.51c-2.95,0-5.33-2.39-5.34-5.34V453.77c0-2.95,2.39-5.33,5.34-5.34h128.12
	c2.95,0,5.33,2.39,5.34,5.34V587.2C180.96,590.14,178.58,592.53,175.63,592.54z M47.51,450.56c-1.77,0-3.2,1.43-3.2,3.2V587.2
	c0,1.77,1.43,3.2,3.2,3.2h128.12c1.77,0,3.2-1.43,3.2-3.2V453.77c0-1.77-1.43-3.2-3.2-3.2L47.51,450.56z"/>
<path class="st0" d="M333.64,592.54H205.52c-2.95,0-5.33-2.39-5.34-5.34V453.77c0-2.95,2.39-5.33,5.34-5.34h128.12
	c2.95,0,5.33,2.39,5.34,5.34V587.2C338.98,590.14,336.59,592.53,333.64,592.54z M205.52,450.56c-1.77,0-3.2,1.43-3.2,3.2V587.2
	c0,1.77,1.43,3.2,3.2,3.2h128.12c1.77,0,3.2-1.43,3.2-3.2V453.77c0-1.77-1.43-3.2-3.2-3.2L205.52,450.56z"/>
<circle class="st0" cx="90.17" cy="323.43" r="21.75"/>
<path class="st0" d="M140.39,308.93c-2,0-3.62,1.62-3.62,3.62c0,2,1.62,3.62,3.62,3.62h170.86c2,0,3.62-1.63,3.62-3.63
	c0-2-1.62-3.61-3.62-3.62H140.39z"/>
<path class="st0" d="M140.39,330.67c-2,0-3.63,1.61-3.63,3.62s1.61,3.63,3.62,3.63h73.54c2,0,3.62-1.62,3.62-3.62
	c0-2-1.62-3.62-3.62-3.62H140.39z"/>
<path class="st0" d="M73.49,365.44c-2.76,0-5,1.63-5,3.62s2.24,3.62,5,3.62h235.73c2.76,0,5-1.63,5-3.62s-2.24-3.62-5-3.62H73.49z"
	/>
<path class="st0" d="M73.49,387.18c-2.76,0-5,1.63-5,3.62s2.24,3.62,5,3.62h235.73c2.76,0,5-1.63,5-3.62s-2.24-3.62-5-3.62H73.49z"
	/>
<circle class="st0" cx="92.3" cy="92.81" r="21.75"/>
<path class="st0" d="M142.52,78.31c-2,0-3.62,1.63-3.62,3.63c0,2,1.62,3.61,3.62,3.62h170.86c2,0,3.63-1.61,3.63-3.62
	c0-2-1.61-3.63-3.62-3.63l0,0c-0.01,0-0.01,0-0.02,0H142.52z"/>
<path class="st0" d="M142.52,100.06c-2,0-3.62,1.63-3.62,3.63c0,2,1.62,3.61,3.62,3.62h73.52c2,0,3.63-1.61,3.63-3.62
	s-1.61-3.63-3.62-3.63c-0.01,0-0.01,0-0.02,0H142.52z"/>
<path class="st0" d="M175.52,247.7H55.33l28.28-48.99c1.59-2.76,5.13-3.71,7.89-2.11c0.88,0.51,1.61,1.24,2.11,2.11l12.08,20.93
	l20.54-35.58c2-3.46,6.42-4.64,9.88-2.65c1.1,0.63,2.01,1.55,2.65,2.65L175.52,247.7z M59.03,245.56h112.79l-34.9-60.44
	c-1.41-2.44-4.52-3.27-6.96-1.87c-0.78,0.45-1.42,1.09-1.87,1.87L105.7,223.9l-13.93-24.13c-1-1.74-3.23-2.34-4.97-1.33
	c-0.55,0.32-1.01,0.78-1.33,1.33L59.03,245.56z"/>
<path class="st0" d="M329.26,247.7H209.07l28.28-48.99c1.59-2.76,5.13-3.71,7.89-2.11c0.88,0.51,1.61,1.24,2.11,2.11l12.08,20.93
	l20.54-35.58c2-3.46,6.42-4.64,9.88-2.65c1.1,0.63,2.01,1.55,2.65,2.65L329.26,247.7z M212.77,245.56h112.79l-34.9-60.44
	c-1.41-2.44-4.52-3.27-6.96-1.87c-0.78,0.45-1.42,1.09-1.87,1.87l-22.39,38.79l-13.93-24.13c-1-1.74-3.23-2.34-4.97-1.33
	c-0.55,0.32-1.01,0.78-1.33,1.33L212.77,245.56z"/>
<path class="st0" d="M175.63,247.68H47.51c-2.95,0-5.33-2.39-5.34-5.34v-71.51c0-2.95,2.39-5.33,5.34-5.34h128.12
	c2.95,0,5.33,2.39,5.34,5.34v71.51C180.96,245.29,178.58,247.68,175.63,247.68z M47.51,167.64c-1.77,0-3.2,1.43-3.2,3.2v71.51
	c0,1.77,1.43,3.2,3.2,3.2h128.12c1.77,0,3.2-1.43,3.2-3.2v-71.51c0-1.77-1.43-3.2-3.2-3.2L47.51,167.64z"/>
<path class="st0" d="M74.81,475.94c-2,0-3.63,1.62-3.63,3.62c0,2,1.62,3.63,3.62,3.63c0,0,0.01,0,0.01,0h73.52
	c2,0,3.63-1.62,3.63-3.62c0-2-1.62-3.63-3.62-3.63c0,0-0.01,0-0.01,0H74.81z"/>
<path class="st0" d="M74.81,497.3c-2,0-3.63,1.62-3.63,3.62c0,2,1.62,3.63,3.62,3.63c0,0,0.01,0,0.01,0h73.52
	c2,0,3.63-1.62,3.63-3.62c0-2-1.62-3.63-3.62-3.63c0,0-0.01,0-0.01,0H74.81z"/>
<path class="st0" d="M111.57,565.02c-12.6,0-22.81-10.21-22.81-22.81c0-12.6,10.21-22.81,22.81-22.81s22.81,10.21,22.81,22.81
	c0,0,0,0,0,0l0,0C134.37,554.8,124.16,565.01,111.57,565.02z M111.57,521.53c-11.42,0-20.68,9.26-20.68,20.68
	c0,11.42,9.26,20.68,20.68,20.68c11.42,0,20.68-9.26,20.68-20.68v0l0,0C132.23,530.79,122.98,521.54,111.57,521.53L111.57,521.53z"
	/>
<path class="st0" d="M306.34,565.02c2,0,3.63-1.62,3.63-3.62c0-2-1.62-3.63-3.62-3.63c0,0-0.01,0-0.01,0h-73.52
	c-2,0-3.62,1.63-3.62,3.63c0,2,1.62,3.62,3.62,3.62H306.34z"/>
<path class="st0" d="M306.34,543.67c2,0,3.63-1.62,3.63-3.62c0-2-1.62-3.63-3.62-3.63c0,0-0.01,0-0.01,0h-73.52
	c-2,0-3.62,1.62-3.62,3.62c0,2,1.62,3.62,3.62,3.62H306.34z"/>
<path class="st0" d="M269.58,475.94c12.6,0,22.81,10.21,22.81,22.81s-10.21,22.81-22.81,22.81s-22.81-10.21-22.81-22.81v0
	C246.78,486.16,256.99,475.96,269.58,475.94z M269.58,519.44c11.42,0,20.68-9.26,20.68-20.68s-9.26-20.68-20.68-20.68
	c-11.42,0-20.68,9.26-20.68,20.68l0,0v0C248.92,510.17,258.17,519.42,269.58,519.44L269.58,519.44z"/>
<circle class="st2" cx="234.64" cy="132.19" r="54"/>
<ellipse transform="matrix(0.1602 -0.9871 0.9871 0.1602 66.5659 342.6248)" class="st2" cx="234.64" cy="132.19" rx="36" ry="36"/>
<ellipse transform="matrix(0.1602 -0.9871 0.9871 0.1602 66.5659 342.6248)" class="st3" cx="234.64" cy="132.19" rx="25" ry="25"/>
<circle class="st2" cx="111.64" cy="497.19" r="39.92"/>
<circle class="st2" cx="111.64" cy="497.19" r="26.61"/>
<circle class="st3" cx="111.64" cy="497.19" r="18.48"/>
<circle class="st2" cx="277.64" cy="341.19" r="45.92"/>
<circle class="st2" cx="277.64" cy="341.19" r="30.61"/>
<circle class="st3" cx="277.64" cy="341.19" r="21.26"/>
<path class="st4" d="M491.1,412.49l-9.45,15.96c-3.35,5.66-10.66,7.54-16.32,4.18c-0.92-0.54-1.76-1.21-2.5-1.98l0,0
	c-4.57-4.73-4.44-12.28,0.3-16.85c0.41-0.39,0.84-0.75,1.29-1.08l15.37-11.11c14.75-19.97,23.23-53.92,30.46-90.65l30.02,3.52
	C532.52,344.53,514.02,377.84,491.1,412.49z"/>
<path class="st0" d="M494.82,321.68l48.82,13.84v-85.25l-6.48,2.1c-11.48,3.72-20.48,12.73-24.17,24.23L494.82,321.68z"/>
<path class="st5" d="M594.64,626.98l-18.22-0.73c-5.98-61.57-13.62-117.48-29.15-146.45c-15.04,16.1-18.45,66.98-20.97,136.25
	h-17.65c-18.56-79.83-23.24-136.43,0-190.17h94.72L594.64,626.98z"/>
<path class="st5" d="M527.41,628.39l-31.62,16.15c-3.42,1.75-7.62,0.39-9.37-3.03c-0.07-0.13-0.13-0.26-0.18-0.39l0,0
	c-1.39-3.2-0.2-6.94,2.79-8.74l4.31-2.6l12-17.95l20.46-1.62l3.74,3.59c3.61,3.46,3.73,9.18,0.27,12.79
	C529.13,627.33,528.31,627.93,527.41,628.39z"/>
<path class="st5" d="M591.66,643.53l-35.49,1c-3.84,0.11-7.05-2.92-7.15-6.76c0-0.14,0-0.29,0-0.43l0,0
	c0.12-3.49,2.8-6.35,6.27-6.69l5.01-0.49l18.55-11.05l19.17,7.33l1.84,4.85c1.77,4.67-0.58,9.89-5.25,11.66
	C593.67,643.31,592.67,643.5,591.66,643.53z"/>
<circle class="st4" cx="555.58" cy="210.69" r="23.82"/>
<path class="st4" d="M594.64,248.82l-49.55,18.94c2.89-15.56,2.92-30.21-1.82-43.35l31.7-5.46
	C572.31,232.61,580.55,241.89,594.64,248.82z"/>
<path class="st0" d="M615.04,439.72c-43.61,8.28-78.72,2.97-107.11-13.12c13.13-45.23,15-95.28,11.56-147.59
	c-0.69-10.72,5.46-20.71,15.35-24.91l12.43-5.28c6.7,15.23,22.16,6.46,38.62-5.1l20.34,8.99c6.61,2.92,10.72,9.64,10.3,16.86
	C612.47,339.06,607,413.56,615.04,439.72z"/>
<path class="st4" d="M629.61,429.52l-1.3,18.59c-0.49,7.05-6.59,12.38-13.64,11.93l0,0c-7.08-0.45-12.46-6.56-12.01-13.64
	c0.14-2.13,0.8-4.19,1.93-5.99l10.44-16.71c6.17-24.05,1.28-58.69-5.83-95.45l29.15-8.01C642.47,350.98,637.84,388.8,629.61,429.52z
	"/>
<path class="st5" d="M582.85,195.22c0,0,4.45-9.8-7.12-14.25c0,0-9.8-16.03-29.39-5.34c0,0-13.36,5.34-13.36,19.59
	s-4.45,16.92-4.45,16.92s6.63-6.8,8.41-12.15s15.63-6.56,20.98-1.21s18.7,4.45,18.7,4.45l-0.89,19.59c0,0,4.45-11.58,6.23-11.58
	S585.52,195.22,582.85,195.22z"/>
<path class="st0" d="M648.56,320.95l-48.82,13.84v-85.25l6.48,2.1c11.48,3.72,20.48,12.73,24.17,24.23L648.56,320.95z"/>
<rect x="224.97" y="644.46" class="st0" width="606.1" height="2"/>
<path class="st0" d="M682.64,483.06c13.25,18.73,16.75,125.33,17.53,159.5c0.02,0.77,0.04,1.5,0.05,2.19h33.54
	c0.41-0.73,0.79-1.45,1.15-2.19c19.88-39.24,8.85-86.29,8.27-88.67c1.51,7.48-5.32,29.16-13.04,50.16
	C725.43,539.48,685.16,486.32,682.64,483.06z"/>
<circle class="st4" cx="896" cy="218.94" r="28.01"/>
</svg>
