<?xml version="1.0" encoding="utf-8"?>
<!-- Generator: Adobe Illustrator 24.1.0, SVG Export Plug-In . SVG Version: 6.00 Build 0)  -->
<svg version="1.1" id="f9d61bf9-0ef1-4a80-973b-f2b4c4b57253"
	 xmlns="http://www.w3.org/2000/svg" xmlns:xlink="http://www.w3.org/1999/xlink" x="0px" y="0px" viewBox="0 0 816.36 662.16"
	 style="enable-background:new 0 0 816.36 662.16;" xml:space="preserve">
<style type="text/css">
	.st0{fill:#3F3D56;}
	.st1{fill:#2F2E41;}
	.st2{fill:#FBBEBE;}
	.st3{fill:#9CC22C;}
	.st4{fill:#E6E6E6;}
	.st5{fill:#FFFFFF;}
	.st6{fill:none;stroke:#9CC22C;stroke-width:5;stroke-miterlimit:10;}
</style>
<path class="st0" d="M550.01,608.1c-38,0.1-75.96-2.39-113.62-7.44c-1.23-0.16-2.48-0.33-3.71-0.52
	c-9.24-1.31-18.49-2.82-27.48-4.47c-40.46-7.4-78.62-18.21-113.41-32.12c-115.77-46.31-188.56-36.45-229.24-20.03
	c-44.02,17.77-60.94,46.85-61.11,47.14L0,589.84c0.17-0.3,17.31-29.81,61.81-47.81c26.09-10.56,56.36-15.17,89.97-13.72
	c41.96,1.82,89.27,13.15,140.63,33.7c34.69,13.87,72.73,24.65,113.09,32.03c8.97,1.64,18.2,3.14,27.42,4.46
	c1.23,0.18,2.47,0.36,3.69,0.51c102.08,14.04,200.56,5.57,265.2-4c53.28-7.89,87.57-17.12,87.91-17.21l0.44,1.61
	c-0.34,0.09-34.72,9.35-88.1,17.25C651.72,604.15,600.9,607.97,550.01,608.1z"/>
<path class="st0" d="M550.12,130.27c-29.35,0-57.92-1.37-85.49-4.12c-63.35-6.31-121.5-19.92-172.84-40.46
	C176.02,39.38,103.23,49.24,62.56,65.66C18.54,83.43,1.61,112.51,1.45,112.8L0,111.98c0.17-0.3,17.31-29.81,61.81-47.81
	c26.09-10.56,56.36-15.17,89.97-13.72c41.96,1.82,89.27,13.15,140.63,33.7c115.95,46.38,244.98,48.2,332.8,41.57
	c95.19-7.19,163.83-25.6,164.51-25.78l0.44,1.61c-0.68,0.19-69.44,18.63-164.78,25.83C599.85,129.3,574.71,130.27,550.12,130.27z"/>
<path class="st1" d="M545.81,8.05c0,0-32.73-11.69-53.77,35.07s-53.77,98.19-53.77,98.19l18.7,4.68c0,0,4.68-32.73,16.37-37.41
	l-4.68,42.08c0,0,140.28,49.1,203.4-4.68l-2.34-16.37c0,0,9.35,2.34,9.35,16.37l7.01-7.01c0,0-7.01-14.03-28.06-32.73
	c-13.81-12.28-18.56-35.63-20.19-50.23c-1.22-12.19-6.1-23.73-14-33.1C609.87,6.7,584.39-10.52,545.81,8.05z"/>
<path class="st2" d="M744.47,272.64c0,0,61.59,52.54,70.65,83.33s-34.42,34.42-34.42,34.42l-94.2,9.06c0,0-1.81,43.48-18.12,48.91
	s-3.31-71.9-3.31-71.9l92.08-25.93l-41.67-43.48L744.47,272.64z"/>
<path class="st2" d="M456.43,326.99L449.18,423l-39.85,163.04c0,0-36.23,74.27-5.43,76.09s28.99-70.65,28.99-70.65l57.97-153.98
	l5.43-105.07L456.43,326.99z"/>
<circle class="st2" cx="557.88" cy="98.73" r="59.78"/>
<path class="st2" d="M530.7,127.72c0,0,21.74,77.9-12.68,97.82s86.96,34.42,119.56-25.36c0,0-57.97-19.93-41.67-72.46H530.7z"/>
<path class="st3" d="M489.04,234.6l-10.87-3.62c0,0-21.74,9.06-21.74,25.36s-3.62,81.52-3.62,81.52l48.91,5.43L489.04,234.6z"/>
<path class="st1" d="M701.94,595.83c-66.88,9.91-164.35,17.91-265.43,4c-0.01-1-0.01-1.97-0.01-2.92c0-5.65,0.22-11.24,0.65-16.77
	c5.18-68.03,40.23-124.75,53.79-144.41c0.68-1,1.32-1.9,1.88-2.7c2.19-3.07,3.46-4.7,3.46-4.7s105.07-1.72,159.42,20.02
	c2.62,1.1,5.02,2.67,7.08,4.63C683.04,471.69,694.94,532.4,701.94,595.83z"/>
<path class="st3" d="M662.95,209.24c0,0,23.55-12.68,47.1,14.49l47.1,54.35l-36.23,39.85l-68.84-41.67L662.95,209.24z"/>
<path class="st1" d="M493.28,99.11c21.16-15.32,38.29-32.96,49.63-53.94c0,0,38.84,43.15,62.57,45.31s2.16-51.78,2.16-51.78
	l-43.15-10.79l-41,4.32L491.12,53.8L493.28,99.11z"/>
<path class="st3" d="M628.53,196.56c0,0-25.35,40.08-101.44,20.95l-43.18,11.89l-5.74,1.58c0,0,5.43,108.69,19.93,128.62
	s10.87,30.8,7.25,32.61c-3.62,1.81-12.68-1.81-7.25,7.25c5.43,9.06,12.68,3.62,5.43,9.06s-10.87,25.36-10.87,25.36l170.29,21.74
	c0,0-5.43-70.65,9.06-106.88S690.12,298,690.12,298l-10.87-90.58L628.53,196.56z"/>
<rect x="41.52" y="161.09" class="st4" width="233.1" height="291.38"/>
<rect x="57.75" y="185.65" class="st5" width="49.95" height="33.3"/>
<rect x="58.17" y="250.59" class="st5" width="193.14" height="11.66"/>
<rect x="58.17" y="281.39" class="st5" width="193.14" height="11.66"/>
<rect x="58.17" y="312.19" class="st5" width="193.14" height="11.66"/>
<rect x="58.17" y="342.99" class="st5" width="193.14" height="11.66"/>
<rect x="58.17" y="373.8" class="st5" width="193.14" height="11.66"/>
<path class="st3" d="M320.41,452.05c-0.02,25.22-20.49,45.64-45.7,45.62c-25.22-0.02-45.64-20.49-45.62-45.7
	c0.02-25.22,20.49-45.64,45.7-45.62c15.64,0.01,30.18,8.03,38.54,21.24C317.96,434.91,320.41,443.39,320.41,452.05z"/>
<path class="st5" d="M313.33,427.59l-45.07,45.06c-2.83-4.39-18.61-24.77-18.61-24.77c2.02-2.04,4.18-3.95,6.46-5.7l13.09,17.45
	l38.86-38.86C310.02,422.88,311.79,425.16,313.33,427.59z"/>
<path class="st3" d="M606.1,101.27c-98.81,28.73-111.38,0.38-111.38,0.38l4.31,31.16c0,0,35.16,40.9,113.98-2.89L606.1,101.27"/>
<path class="st6" d="M498.1,130.27c47.1,38.27,127.12-4.55,127.12-4.55"/>
</svg>
