<?xml version="1.0" encoding="utf-8"?>
<!-- Generator: Adobe Illustrator 24.1.0, SVG Export Plug-In . SVG Version: 6.00 Build 0)  -->
<svg version="1.1" id="a25bd85d-2c59-4178-a879-461194641fab"
	 xmlns="http://www.w3.org/2000/svg" xmlns:xlink="http://www.w3.org/1999/xlink" x="0px" y="0px" viewBox="0 0 426.56 657.23"
	 style="enable-background:new 0 0 426.56 657.23;" xml:space="preserve">
<style type="text/css">
	.st0{opacity:0.2;enable-background:new    ;}
	.st1{fill:#E6E6E6;}
	.st2{fill:#3F3D56;}
	.st3{opacity:0.56;fill:#9CC22C;enable-background:new    ;}
	.st4{opacity:0.56;fill:#FFB8B8;enable-background:new    ;}
	.st5{opacity:0.56;fill:#2F2E41;enable-background:new    ;}
	.st6{fill:#CCCCCC;}
	.st7{fill:#FFB8B8;}
	.st8{fill:#FFFFFF;}
	.st9{fill:#9CC22C;}
	.st10{fill:#2F2E41;}
</style>
<polygon class="st0" points="424.4,252.24 417.93,252.21 393.12,252.14 387.61,252.13 370.89,252.08 366.76,252.06 364.92,252.06 
	278.72,251.82 277.35,251.81 276.04,251.81 270.8,251.79 256,251.76 248.86,251.74 234.04,251.7 234.04,37.07 416.86,20.92 
	423.33,20.35 "/>
<path class="st1" d="M417.93,252.21v0.02l-18.12-0.05l-6.7-0.02l-5.51-0.01l-7.92-0.02l-3.16-0.01l-5.63-0.01l-2.92-0.01h-1.22
	l-1.8-0.01h-0.03l-13.6-0.03l-2.46-0.01l-34.87-0.1l-6.27-0.02l-25.57-0.08l-3.44-0.01h-1.38c0.01-0.01,0.01-0.01,0.01-0.02h-1.31
	l-5.24-0.02l-14.8-0.03v0.01l-7.14-0.02l-4.91-0.01h-1.1l-15.28-0.04V37.07l189.28-16.72v0.57L417.93,252.21z"/>
<circle class="st0" cx="322.48" cy="9.02" r="7.55"/>
<circle class="st2" cx="318.17" cy="9.02" r="7.55"/>
<rect x="263.16" y="4.71" transform="matrix(0.9968 -0.0796 0.0796 0.9968 0.3056 25.7122)" class="st0" width="118.64" height="8.63"/>
<rect x="258.85" y="4.71" transform="matrix(0.9968 -0.0796 0.0796 0.9968 0.2919 25.3686)" class="st1" width="118.64" height="8.63"/>
<path class="st3" d="M388.07,204.34c-6.34-24.03-9.72-25.89-9.72-25.89l-35.76-18l-0.24-0.09l-20.1,14.83l-8.66-13.33l-0.43-0.38
	c0,0-0.18,0.08-0.54,0.22c-3.11,1.25-19.1,7.86-30.98,15.73l-0.37-0.05l-14.01,6.97l-2.51,9.29l-2.9,10.71l-9.99,46.4v0.01
	l7.14,0.02v-0.01l14.8,0.03l2.33-11.43l2.91,11.45h1.3c0,0.01,0,0.02-0.01,0.02h1.38l3.44,0.01l25.57,0.08l6.27,0.02l34.87,0.1
	l2.46,0.01l13.6,0.03h0.03l1.8,0.01v-0.03l0.93-10.11l0.56-2.83l2.64,12.95l0.01,0.02l5.63,0.01l3.16,0.01l7.92,0.02l5.51,0.01
	v-0.02C394.6,240.86,390.4,213.18,388.07,204.34z"/>
<path class="st4" d="M357.03,133.11l0.01,0.05C357.03,133.16,357.02,133.14,357.03,133.11c-0.14-0.49-1.95-6.31-7.12-3.32
	c-5.4,3.12-11.85-16.48-11.85-16.48s-16.24,4.47-26.16,3.79c-0.67-0.05-1.33-0.21-1.95-0.47c-4.65,9.63-2.74,21.15,4.77,28.77
	L312.96,161l9,14l20-15c0,0,0.25,3.82,1.07-9.26c7.87-3.52,13.42-10.8,14.71-19.32C357.34,132.34,357.06,132.94,357.03,133.11z"/>
<path class="st5" d="M357.75,132.42c2.21-5.03,8.13-19.82-2.27-28.73c-8.6-7.37-38.95-13.96-48.65,5.62
	c-1.49,3.02-0.25,6.67,2.77,8.16c0.12,0.06,0.23,0.11,0.35,0.16c0.14-0.29,0.3-0.57,0.45-0.85c0.49,0.17,0.99,0.28,1.5,0.32
	c9.92,0.68,26.16-3.79,26.16-3.79s6.45,19.61,11.85,16.48c5.17-2.99,6.98,2.82,7.12,3.32c0.03-0.17,0.31-0.77,0.72-1.69
	c0.16-1.12,0.25-2.25,0.27-3.38c0,0.2,0.02,0.4,0.02,0.6C358.03,129.9,357.94,131.17,357.75,132.42z"/>
<ellipse class="st1" cx="166.1" cy="631.34" rx="166.1" ry="25.88"/>
<polygon class="st2" points="422.25,579.03 386.12,620.86 385.45,621.64 173.65,589.28 173.65,347.69 421.71,347.69 "/>
<rect x="215.17" y="419.89" transform="matrix(0.0748 -0.9972 0.9972 0.0748 -240.2085 624.1393)" class="st1" width="2.16" height="43.26"/>
<rect x="321.94" y="428.52" transform="matrix(0.0712 -0.9975 0.9975 0.0712 -150.0711 741.279)" class="st1" width="2.16" height="45.41"/>
<polygon class="st1" points="385.64,415.1 173.17,402.15 173.04,404.31 270.18,410.22 271.83,604.45 273.99,604.43 272.34,410.36 
	385.51,417.25 "/>
<polygon class="st0" points="422.25,579.03 386.12,620.86 386.12,347.69 421.71,347.69 "/>
<path class="st1" d="M188.21,352.54h-19.41V339.6l51.77-9.71l3.24-6.47l202.77,5.39v18.34l-40.45,14.76l-26.42-0.74
	c0,0-39.91,33.43-87.36,30.2S188.21,352.54,188.21,352.54z"/>
<path class="st6" d="M364.55,340.14l-11.32,8.09l-31.72-0.77c0,0.01-0.01,0-0.01,0h-0.05l-2.42-0.05h-0.01l-2.01-0.05l-6.33-0.15
	l-0.53-0.01l-5.6-0.13l-0.2-0.01l-6.96-0.16l-0.45-0.01l-5.14-0.13l-0.83-0.01l-6.04-0.15l-1.94-0.04l-10.86-0.26l-2.74-0.06
	l-28.86-0.69c0,0-20.57,1.02-21.54-4.95c-0.02-0.15-0.03-0.29-0.03-0.44c0-3.4,3.58-4.12,6.97-4.03c2.01,0.07,4.01,0.34,5.98,0.8
	l8.28,0.2l5.17,0.12l16.21,0.4l13.86,0.33l4.91,0.13l7.02,0.17l2.78,0.06l10.33,0.25l4.83,0.12l10.2,0.25L364.55,340.14z"/>
<circle class="st2" cx="304.15" cy="343.37" r="2.16"/>
<ellipse class="st6" cx="305.23" cy="335.82" rx="20.49" ry="2.16"/>
<path class="st2" d="M292.4,308.41l17.88,4.36l0,0l-2.04,8.38l0,0l-25.65-6.25l0,0l0.15-0.61
	C283.78,309.99,288.11,307.36,292.4,308.41z"/>
<path class="st2" d="M285.65,315.17l9.6,1.44l0,0l-0.05,0.31c-0.33,2.18-2.37,3.69-4.55,3.36l-1.69-0.25
	c-2.18-0.33-3.69-2.37-3.36-4.55L285.65,315.17L285.65,315.17z"/>
<path class="st0" d="M308.24,318.99l-13.41-3.27c-0.82,1.68-2.64,2.63-4.49,2.36l-1.07-0.16c-2.17-0.33-3.75-2.25-3.65-4.44
	l-2.28-0.56c-0.33,0.62-0.59,1.29-0.76,1.97l3.04,0.74c-0.1,2.2,1.48,4.11,3.65,4.44l1.07,0.16c1.85,0.27,3.67-0.68,4.49-2.36
	l13.41,3.27l2.04-8.38l-0.5-0.12L308.24,318.99z"/>
<path class="st2" d="M305.98,336.9L305.98,336.9c-4.35,0-7.88-3.53-7.88-7.88c0-0.14,0-0.28,0.01-0.41l1.18-22.45l14.56-0.54v23.4
	C313.85,333.37,310.33,336.9,305.98,336.9L305.98,336.9z"/>
<path class="st2" d="M312.78,306.16h-13.11c2.27-3.45,0.86-6.98-2.33-10.56c-0.52-0.59-0.47-1.5,0.13-2.02
	c0.26-0.23,0.6-0.36,0.95-0.36h5c5.17,0,9.37,4.83,9.37,10.79L312.78,306.16z"/>
<path class="st0" d="M301.65,295.6c-0.52-0.59-0.47-1.5,0.13-2.02c0.26-0.23,0.6-0.36,0.95-0.36h-4.31c-0.79,0-1.43,0.64-1.44,1.43
	c0,0.35,0.13,0.69,0.36,0.95c3.18,3.58,4.6,7.11,2.33,10.56h4.31C306.25,302.71,304.83,299.18,301.65,295.6z"/>
<path class="st7" d="M239.42,318.88l16.59,5.86c0,0,39.46,3.15,34.34,13.18s-38.89,3.55-38.89,3.55l-15.99-11.1L239.42,318.88z"/>
<path class="st8" d="M264.24,333.67c-2.29,0-4.18,1.8-4.29,4.09c-0.24-0.22-0.51-0.41-0.81-0.54c1.98-1.34,2.49-4.04,1.14-6.01
	s-4.04-2.49-6.01-1.14c-1.98,1.34-2.49,4.04-1.14,6.01c0.57,0.84,1.43,1.46,2.41,1.73c-1.29,1.23-1.34,3.28-0.11,4.57
	c1.23,1.29,3.28,1.34,4.57,0.11c0.49-0.47,0.82-1.08,0.95-1.74c1.53,1.82,4.24,2.07,6.07,0.54c1.82-1.53,2.07-4.24,0.54-6.07
	C266.73,334.23,265.52,333.66,264.24,333.67L264.24,333.67z"/>
<path class="st8" d="M271.79,335.82c-2.29,0-4.18,1.8-4.29,4.09c-0.24-0.22-0.51-0.41-0.81-0.54c1.98-1.34,2.49-4.04,1.14-6.01
	c-1.34-1.98-4.04-2.49-6.01-1.14c-1.98,1.34-2.49,4.04-1.14,6.01c0.57,0.84,1.43,1.46,2.41,1.73c-1.29,1.23-1.34,3.28-0.11,4.57
	c1.23,1.29,3.28,1.34,4.57,0.11c0.49-0.47,0.82-1.08,0.95-1.74c1.53,1.82,4.24,2.07,6.07,0.54c1.82-1.53,2.07-4.24,0.54-6.07
	C274.28,336.39,273.07,335.82,271.79,335.82L271.79,335.82z"/>
<path class="st9" d="M251.49,318.4l-15.01,24.8l-31.57-21.19l-36.26-24.33l-21.86-57.4l-22.23-40.7l27.86-8.21
	c0,0,9.59,0.37,21.98,23.11c12.38,22.76,23.42,62.15,23.42,62.15l14.81,11.53L251.49,318.4z"/>
<path class="st0" d="M251.49,318.4l-15.01,24.8l-31.57-21.19l-36.26-24.33l-21.86-57.4l-22.23-40.7l27.86-8.21
	c0,0,9.59,0.37,21.98,23.11c12.38,22.76,23.42,62.15,23.42,62.15l14.81,11.53L251.49,318.4z"/>
<path class="st7" d="M321.44,347.46l-38.46-0.92l-3.05-3.46l-2.16-2.45l-2.36-2.67l-2.62-2.97l4.47-6.92l2.12-3.3l8.61,5.65l6.1,4
	c0,0,5.11,1.7,11.2,4.27C310.93,341.09,317.44,344.23,321.44,347.46z"/>
<circle class="st7" cx="172.58" cy="123.48" r="26.37"/>
<path class="st7" d="M152.14,130.73l-2.64,38.24l32.97,3.96c0,0,0-31.65,2.64-35.6S152.14,130.73,152.14,130.73z"/>
<path class="st9" d="M225.32,180.18l-42.7-18.08c0,0-20.4-15.74-32.36-4.1l-5.37,7.68c0,0-32.72,17.59-32.72,32.1l3.71,73.39
	c0,0-10.55,40.88,5.27,43.51l85.71,7.91c0,0,11.87-14.51,1.32-32.97l3.96-43.51L225.32,180.18z"/>
<path class="st9" d="M196.31,181.5l29.01-1.32c0,0,2.13,2.24,8.72,27.3s15.02,66.33,15.02,66.33l42.15,53.39l-20.49,20.49
	l-55.01-60.4l-7.53-60.96L196.31,181.5z"/>
<path class="st10" d="M210.82,319.95l-94.81-8.34c0,0-9.37,59.77-8.05,83.5s2.64,60.66,2.64,60.66l-10.55,160.87l40.88-5.27
	l5.27-133.18l17.14-72.52l19.78,92.3l13.19,118.68l35.6-3.96l-11.87-143.73C220.05,468.96,230.6,339.73,210.82,319.95z"/>
<path class="st10" d="M224.01,606.1l11.87,3.96c0,0,25.05-6.59,18.46,10.55s-25.05,14.51-25.05,14.51s-22.42,17.14-31.65,3.96
	l5.27-27.69L224.01,606.1z"/>
<path class="st10" d="M127.75,606.1l11.87,3.96c0,0,25.05-6.59,18.46,10.55s-25.05,14.51-25.05,14.51s-22.42,17.14-31.65,3.96
	l5.27-27.69L127.75,606.1z"/>
<path class="st10" d="M152.14,146.55c0,0-27.69-19.78-13.19-43.51c10.06-16.47,30.91-15.16,42.74-12.82
	c6.47,1.19,11.94,5.5,14.62,11.5c1.98,4.62,1.98,9.23-5.93,9.23c-15.82,0-7.91,11.87-7.91,11.87s-10.55,2.64-7.91,11.87
	S152.14,146.55,152.14,146.55z"/>
<circle class="st8" cx="320.33" cy="344.45" r="3.24"/>
<path class="st8" d="M317.09,342.29c0-1.3-0.59-2.54-1.61-3.35c-0.77-0.62-1.72-0.96-2.71-0.96c-0.05,0-0.1,0.01-0.15,0.01
	c-0.58-2.3-2.91-3.7-5.21-3.12c-1.27,0.32-2.32,1.2-2.86,2.39c-1.41-0.74-3.16-0.33-4.09,0.97c-3.18-0.4-6.29-1.22-9.25-2.42
	c-1.65,0-3.16,0.95-3.87,2.44c-0.29,0.58-0.45,1.22-0.44,1.88c0,0.78,0.22,1.54,0.63,2.2c-1.59,0.22-2.78,1.58-2.78,3.19
	c0,0.36,0.06,0.72,0.18,1.06l6.04,0.15c0.08-0.2,0.15-0.4,0.18-0.61c0.19,0.23,0.41,0.44,0.65,0.63l5.14,0.13l0.29-0.23
	c0.05,0.08,0.1,0.16,0.16,0.24l6.96,0.16c0.04-0.05,0.08-0.1,0.12-0.15c0.02,0.06,0.05,0.11,0.09,0.16l5.6,0.13
	c0.22-0.37,0.37-0.78,0.43-1.21c0.03,0.02,0.06,0.04,0.1,0.05c-0.03,0.19-0.05,0.38-0.05,0.57c0,0.2,0.02,0.4,0.05,0.59l6.33,0.15
	c0.06-0.24,0.09-0.49,0.09-0.74c0-0.72-0.25-1.42-0.69-1.98C316.85,343.93,317.09,343.12,317.09,342.29z M305.54,342.21
	c-0.18,0.22-0.4,0.42-0.64,0.59c0.06,0.16,0.1,0.33,0.15,0.5c0.27-0.29,0.6-0.52,0.96-0.69
	C305.85,342.48,305.69,342.35,305.54,342.21L305.54,342.21z"/>
<circle class="st8" cx="349.45" cy="345.53" r="3.24"/>
<path class="st8" d="M346.21,343.37c0-1.3-0.59-2.54-1.61-3.35c-0.77-0.62-1.72-0.96-2.71-0.96c-0.05,0-0.1,0.01-0.15,0.01
	c-0.58-2.3-2.91-3.7-5.21-3.12c-1.27,0.32-2.32,1.2-2.86,2.39c-1.41-0.74-3.16-0.33-4.09,0.97c-3.18-0.4-6.29-1.22-9.25-2.42
	c-1.65,0-3.16,0.95-3.87,2.44c-0.29,0.58-0.45,1.22-0.44,1.88c0,0.78,0.22,1.54,0.63,2.2c-1.59,0.22-2.78,1.58-2.78,3.19
	c0,0.36,0.06,0.72,0.18,1.06l6.04,0.15c0.08-0.2,0.15-0.4,0.18-0.61c0.19,0.23,0.41,0.44,0.65,0.63l5.14,0.13l0.29-0.23
	c0.05,0.08,0.1,0.16,0.16,0.24l6.96,0.16c0.04-0.05,0.08-0.1,0.12-0.15c0.02,0.06,0.05,0.11,0.09,0.16l5.6,0.13
	c0.22-0.37,0.37-0.78,0.43-1.21c0.03,0.02,0.06,0.04,0.1,0.05c-0.03,0.19-0.05,0.38-0.05,0.57c0,0.2,0.02,0.4,0.05,0.59l6.33,0.15
	c0.06-0.24,0.09-0.49,0.09-0.74c0-0.72-0.25-1.42-0.69-1.98C345.97,345.01,346.21,344.2,346.21,343.37z M334.66,343.29
	c-0.18,0.22-0.4,0.42-0.64,0.59c0.06,0.16,0.1,0.33,0.15,0.5c0.27-0.29,0.6-0.52,0.96-0.69
	C334.97,343.56,334.81,343.43,334.66,343.29z"/>
<circle class="st8" cx="302.8" cy="344.18" r="2.43"/>
<path class="st8" d="M300.37,342.56c0-0.98-0.44-1.9-1.21-2.52c-0.58-0.46-1.29-0.72-2.03-0.72c-0.04,0-0.07,0.01-0.11,0.01
	c-0.43-1.73-2.19-2.77-3.91-2.34c-0.95,0.24-1.74,0.9-2.15,1.8c-1.06-0.56-2.37-0.25-3.07,0.73c-2.38-0.3-4.71-0.91-6.94-1.81
	c-1.24,0-2.37,0.71-2.9,1.83c-0.22,0.44-0.33,0.92-0.33,1.41c0,0.58,0.16,1.15,0.47,1.65c-1.19,0.17-2.08,1.19-2.09,2.39
	c0,0.27,0.05,0.54,0.14,0.79l4.53,0.11c0.06-0.15,0.11-0.3,0.14-0.46c0.15,0.17,0.31,0.33,0.49,0.47l3.86,0.1l0.22-0.17
	c0.04,0.06,0.08,0.12,0.12,0.18l5.22,0.12c0.03-0.04,0.06-0.07,0.09-0.11c0.02,0.04,0.04,0.08,0.06,0.12l4.2,0.1
	c0.17-0.28,0.28-0.59,0.32-0.91c0.02,0.02,0.05,0.03,0.07,0.04c-0.03,0.14-0.04,0.28-0.04,0.43c0,0.15,0.01,0.3,0.04,0.44l4.75,0.11
	c0.04-0.18,0.06-0.37,0.06-0.56c0-0.54-0.19-1.06-0.52-1.49C300.19,343.79,300.37,343.18,300.37,342.56z M291.71,342.5
	c-0.14,0.17-0.3,0.32-0.48,0.44c0.05,0.12,0.07,0.25,0.11,0.37c0.2-0.22,0.45-0.39,0.72-0.52
	C291.94,342.71,291.82,342.61,291.71,342.5L291.71,342.5z"/>
<circle class="st8" cx="268.29" cy="344.18" r="2.43"/>
<path class="st8" d="M265.86,342.56c0-0.98-0.44-1.9-1.21-2.52c-0.58-0.46-1.29-0.72-2.03-0.72c-0.04,0-0.07,0.01-0.11,0.01
	c-0.43-1.73-2.19-2.77-3.91-2.34c-0.95,0.24-1.74,0.9-2.15,1.8c-1.06-0.56-2.37-0.25-3.07,0.73c-2.38-0.3-4.71-0.91-6.94-1.81
	c-1.24,0-2.37,0.71-2.9,1.83c-0.22,0.44-0.33,0.92-0.33,1.41c0,0.58,0.16,1.15,0.47,1.65c-1.19,0.17-2.08,1.19-2.09,2.39
	c0,0.27,0.05,0.54,0.14,0.79l4.53,0.11c0.06-0.15,0.11-0.3,0.14-0.46c0.15,0.17,0.31,0.33,0.49,0.47l3.86,0.1l0.22-0.17
	c0.04,0.06,0.08,0.12,0.12,0.18l5.22,0.12c0.03-0.04,0.06-0.07,0.09-0.11c0.02,0.04,0.04,0.08,0.06,0.12l4.2,0.1
	c0.17-0.28,0.28-0.59,0.32-0.91c0.02,0.02,0.05,0.03,0.07,0.04c-0.03,0.14-0.04,0.28-0.04,0.43c0,0.15,0.01,0.3,0.04,0.44l4.75,0.11
	c0.04-0.18,0.06-0.37,0.06-0.56c0-0.54-0.19-1.06-0.52-1.49C265.68,343.79,265.86,343.18,265.86,342.56z M257.2,342.5
	c-0.14,0.17-0.3,0.32-0.48,0.44c0.05,0.12,0.07,0.25,0.11,0.37c0.2-0.22,0.45-0.39,0.72-0.52
	C257.43,342.71,257.31,342.61,257.2,342.5z"/>
<path class="st2" d="M381.53,311.49v-6.47h-5.39v1.08c-0.6,0-1.08,0.72-1.08,1.62s0.48,1.62,1.08,1.62v2.16h-4.31v21.57h14.02
	v-21.57H381.53z"/>
</svg>
